{
  "accessors": [
    {
      "bufferView": 2,
      "componentType": 5126,
      "count": 3752,
      "max": [
        2.0737504959106445,
        2.092721700668335,
        1.1796025037765503
      ],
      "min": [
        -2.1479744911193848,
        -2.1198229789733887,
        -0.5359044075012207
      ],
      "type": "VEC3"
    },
    {
      "bufferView": 2,
      "byteOffset": 45024,
      "componentType": 5126,
      "count": 3752,
      "max": [
        0.9951847791671753,
        0.9951848387718201,
        0.9968281984329224
      ],
      "min": [
        -0.9951848983764648,
        -0.9951847195625305,
        -0.5952547192573547
      ],
      "type": "VEC3"
    },
    {
      "bufferView": 1,
      "componentType": 5126,
      "count": 3752,
      "max": [
        1.8686211109161377,
        1.8686211109161377
      ],
      "min": [
        -0.8686211109161377,
        -0.8686211109161377
      ],
      "type": "VEC2"
    },
    {
      "bufferView": 1,
      "byteOffset": 30016,
      "componentType": 5126,
      "count": 3752,
      "max": [
        1.8686211109161377,
        1.8686211109161377
      ],
      "min": [
        -0.8686211109161377,
        -0.8686211109161377
      ],
      "type": "VEC2"
    },
    {
      "bufferView": 0,
      "componentType": 5125,
      "count": 5580,
      "type": "SCALAR"
    },
    {
      "bufferView": 2,
      "byteOffset": 90048,
      "componentType": 5126,
      "count": 2256,
      "max": [
        1.077429175376892,
        1.0837914943695068,
        0.3305770456790924
      ],
      "min": [
        -1.0742082595825195,
        -1.0818583965301514,
        -0.04662314057350159
      ],
      "type": "VEC3"
    },
    {
      "bufferView": 2,
      "byteOffset": 117120,
      "componentType": 5126,
      "count": 2256,
      "max": [
        0.9951757192611694,
        0.9996603727340698,
        0.9993908405303955
      ],
      "min": [
        -0.9951757192611694,
        -0.9996603727340698,
        -0.9993909001350403
      ],
      "type": "VEC3"
    },
    {
      "bufferView": 1,
      "byteOffset": 60032,
      "componentType": 5126,
      "count": 2256,
      "max": [
        0.663192868232727,
        1.0864231586456299
      ],
      "min": [
        0.3321635127067566,
        -0.08810323476791382
      ],
      "type": "VEC2"
    },
    {
      "bufferView": 1,
      "byteOffset": 78080,
      "componentType": 5126,
      "count": 2256,
      "max": [
        0.663192868232727,
        1.0864231586456299
      ],
      "min": [
        0.3321635127067566,
        -0.08810323476791382
      ],
      "type": "VEC2"
    },
    {
      "bufferView": 0,
      "byteOffset": 22320,
      "componentType": 5125,
      "count": 3384,
      "type": "SCALAR"
    }
  ],
  "asset": {
    "extras": {
      "author": "Pikachu_Elegante (https://sketchfab.com/PikachuElegante)",
      "license": "CC-BY-4.0 (http://creativecommons.org/licenses/by/4.0/)",
      "source": "https://sketchfab.com/3d-models/sombrero-de-paja-straw-hat-luffy-8f6b910d990c449bb913d378733667b7",
      "title": "Sombrero de Paja (Straw hat) (麦わらの一味) Luffy"
    },
    "generator": "Sketchfab-15.38.0",
    "version": "2.0"
  },
  "bufferViews": [
    {
      "buffer": 0,
      "byteLength": 35856,
      "name": "floatBufferViews",
      "target": 34963
    },
    {
      "buffer": 0,
      "byteLength": 96128,
      "byteOffset": 35856,
      "byteStride": 8,
      "name": "floatBufferViews",
      "target": 34962
    },
    {
      "buffer": 0,
      "byteLength": 144192,
      "byteOffset": 131984,
      "byteStride": 12,
      "name": "floatBufferViews",
      "target": 34962
    }
  ],
  "buffers": [
    {
      "byteLength": 276176,
      "uri": "scene.bin"
    }
  ],
  "extensionsUsed": [
    "KHR_materials_unlit"
  ],
  "images": [
    {
      "uri": "textures/Material.HAT_baseColor.jpeg"
    },
    {
      "uri": "textures/Material.LISTON_baseColor.jpeg"
    }
  ],
  "materials": [
    {
      "doubleSided": true,
      "extensions": {
        "KHR_materials_unlit": {}
      },
      "name": "Material.HAT",
      "pbrMetallicRoughness": {
        "baseColorTexture": {
          "index": 0
        },
        "metallicFactor": 0.0
      }
    },
    {
      "doubleSided": true,
      "extensions": {
        "KHR_materials_unlit": {}
      },
      "name": "Material.LISTON",
      "pbrMetallicRoughness": {
        "baseColorTexture": {
          "index": 1
        },
        "metallicFactor": 0.0
      }
    }
  ],
  "meshes": [
    {
      "name": "sombrero_Material.HAT_0",
      "primitives": [
        {
          "attributes": {
            "NORMAL": 1,
            "POSITION": 0,
            "TEXCOORD_0": 2,
            "TEXCOORD_1": 3
          },
          "indices": 4,
          "material": 0,
          "mode": 4
        }
      ]
    },
    {
      "name": "liston_Material.LISTON_0",
      "primitives": [
        {
          "attributes": {
            "NORMAL": 6,
            "POSITION": 5,
            "TEXCOORD_0": 7,
            "TEXCOORD_1": 8
          },
          "indices": 9,
          "material": 1,
          "mode": 4
        }
      ]
    }
  ],
  "nodes": [
    {
      "children": [
        1
      ],
      "matrix": [
        0.09632647782564163,
        0.0,
        0.0,
        0.0,
        0.0,
        2.1388774712614385e-17,
        -0.09632647782564163,
        0.0,
        0.0,
        0.09632647782564163,
        2.1388774712614385e-17,
        0.0,
        0.0,
        0.0,
        0.0,
        1.0
      ],
      "name": "Sketchfab_model"
    },
    {
      "children": [
        2
      ],
      "matrix": [
        0.009999999776482582,
        0.0,
        0.0,
        0.0,
        0.0,
        0.0,
        0.009999999776482582,
        0.0,
        0.0,
        -0.009999999776482582,
        0.0,
        0.0,
        0.0,
        0.0,
        0.0,
        1.0
      ],
      "name": "6b0efa59d14340b8afb157c43f319ba3.fbx"
    },
    {
      "children": [
        3,
        6,
        8,
        10
      ],
      "name": "RootNode"
    },
    {
      "children": [
        4
      ],
      "matrix": [
        -29.086477364379697,
        -5.518905590722295,
        -95.51711910171437,
        0.0,
        56.63932069164076,
        79.46722539115298,
        -21.839126361216156,
        0.0,
        77.11007920637729,
        -60.452475336912016,
        -19.988344364310564,
        0.0,
        407.6245422363281,
        590.38623046875,
        -100.54539489746094,
        1.0
      ],
      "name": "Light"
    },
    {
      "children": [
        5
      ],
      "matrix": [
        1.0,
        0.0,
        0.0,
        0.0,
        0.0,
        2.220446049250313e-16,
        1.0,
        0.0,
        0.0,
        -1.0,
        2.220446049250313e-16,
        0.0,
        0.0,
        0.0,
        0.0,
        1.0
      ],
      "name": "Object_4"
    },
    {
      "name": "Object_5"
    },
    {
      "children": [
        7
      ],
      "matrix": [
        -65.1558127516791,
        -44.52713915455176,
        -61.417049289096546,
        0.0,
        -32.401349332924404,
        89.53957282709818,
        -30.5420854760369,
        0.0,
        68.59207001076241,
        8.666908837178815e-06,
        -72.76761921184274,
        0.0,
        735.88916015625,
        495.8309326171875,
        692.5791015625,
        1.0
      ],
      "name": "Camera"
    },
    {
      "name": "Object_7"
    },
    {
      "children": [
        9
      ],
      "matrix": [
        102.65996551513672,
        0.0,
        0.0,
        0.0,
        -0.0,
        -1.6725431328068057e-05,
        -102.65996551513537,
        0.0,
        0.0,
        102.65996551513537,
        -1.6725431328068057e-05,
        0.0,
        -6.543920993804932,
        77.27389526367188,
        -1.880234049167484e-05,
        1.0
      ],
      "name": "sombrero"
    },
    {
      "mesh": 0,
      "name": "sombrero_Material.HAT_0"
    },
    {
      "children": [
        11
      ],
      "matrix": [
        105.44827270507813,
        0.0,
        0.0,
        0.0,
        -0.0,
        -1.717970422980644e-05,
        -105.44827270507673,
        0.0,
        0.0,
        105.44827270507673,
        -1.717970422980644e-05,
        0.0,
        -6.718687057495117,
        64.98388671875,
        0.030551571398973465,
        1.0
      ],
      "name": "liston"
    },
    {
      "mesh": 1,
      "name": "liston_Material.LISTON_0"
    }
  ],
  "samplers": [
    {
      "magFilter": 9729,
      "minFilter": 9987,
      "wrapS": 10497,
      "wrapT": 10497
    }
  ],
  "scene": 0,
  "scenes": [
    {
      "name": "Sketchfab_Scene",
      "nodes": [
        0
      ]
    }
  ],
  "textures": [
    {
      "sampler": 0,
      "source": 0
    },
    {
      "sampler": 0,
      "source": 1
    }
  ]
}
