{
  "accessors": [
    {
      "bufferView": 2,
      "componentType": 5126,
      "count": 256,
      "max": [
        0.34540411829948425,
        0.3468400537967682,
        0.9729723334312439
      ],
      "min": [
        -0.348332017660141,
        -0.37753230333328247,
        -0.019703326746821404
      ],
      "type": "VEC3"
    },
    {
      "bufferView": 2,
      "byteOffset": 3072,
      "componentType": 5126,
      "count": 256,
      "max": [
        0.9788247346878052,
        0.999556303024292,
        0.46015775203704834
      ],
      "min": [
        -0.9995633363723755,
        -0.9942628741264343,
        -0.19247981905937195
      ],
      "type": "VEC3"
    },
    {
      "bufferView": 1,
      "componentType": 5126,
      "count": 256,
      "max": [
        1.0086814165115356,
        1.0004026889801025
      ],
      "min": [
        -0.0009777978993952274,
        0.0
      ],
      "type": "VEC2"
    },
    {
      "bufferView": 0,
      "componentType": 5125,
      "count": 384,
      "type": "SCALAR"
    },
    {
      "bufferView": 2,
      "byteOffset": 6144,
      "componentType": 5126,
      "count": 220,
      "max": [
        0.2263065129518509,
        0.2786685526371002,
        0.484989196062088
      ],
      "min": [
        -0.2640416920185089,
        -0.24593141674995422,
        -0.04772463068366051
      ],
      "type": "VEC3"
    },
    {
      "bufferView": 2,
      "byteOffset": 8784,
      "componentType": 5126,
      "count": 220,
      "max": [
        0.952644944190979,
        0.9289942979812622,
        -0.13751250505447388
      ],
      "min": [
        -0.9721992015838623,
        -0.9755634069442749,
        -0.9042086005210876
      ],
      "type": "VEC3"
    },
    {
      "bufferView": 1,
      "byteOffset": 2048,
      "componentType": 5126,
      "count": 220,
      "max": [
        1.0,
        1.0
      ],
      "min": [
        0.0,
        0.0
      ],
      "type": "VEC2"
    },
    {
      "bufferView": 0,
      "byteOffset": 1536,
      "componentType": 5125,
      "count": 330,
      "type": "SCALAR"
    },
    {
      "bufferView": 2,
      "byteOffset": 11424,
      "componentType": 5126,
      "count": 140,
      "max": [
        0.1779467761516571,
        0.1779467761516571,
        0.2672749161720276
      ],
      "min": [
        -0.1779467761516571,
        -0.1779467761516571,
        0.0
      ],
      "type": "VEC3"
    },
    {
      "bufferView": 2,
      "byteOffset": 13104,
      "componentType": 5126,
      "count": 140,
      "max": [
        0.9238795638084412,
        0.9238796830177307,
        1.0
      ],
      "min": [
        -0.9238795638084412,
        -0.9238796830177307,
        -1.0
      ],
      "type": "VEC3"
    },
    {
      "bufferView": 1,
      "byteOffset": 3808,
      "componentType": 5126,
      "count": 140,
      "max": [
        0.9026482105255127,
        0.4790947139263153
      ],
      "min": [
        0.03259847313165665,
        0.010878585278987885
      ],
      "type": "VEC2"
    },
    {
      "bufferView": 0,
      "byteOffset": 2856,
      "componentType": 5125,
      "count": 228,
      "type": "SCALAR"
    },
    {
      "bufferView": 2,
      "byteOffset": 14784,
      "componentType": 5126,
      "count": 156,
      "max": [
        0.20517481863498688,
        0.23691554367542267,
        0.3417653441429138
      ],
      "min": [
        -0.20517493784427643,
        -0.23691554367542267,
        0.0
      ],
      "type": "VEC3"
    },
    {
      "bufferView": 2,
      "byteOffset": 16656,
      "componentType": 5126,
      "count": 156,
      "max": [
        1.0,
        0.8660255074501038,
        1.0
      ],
      "min": [
        -1.0,
        -0.8660255074501038,
        -1.0
      ],
      "type": "VEC3"
    },
    {
      "bufferView": 1,
      "byteOffset": 4928,
      "componentType": 5126,
      "count": 156,
      "max": [
        0.9175289869308472,
        0.9199961423873901
      ],
      "min": [
        0.5721007585525513,
        0.06477069854736328
      ],
      "type": "VEC2"
    },
    {
      "bufferView": 0,
      "byteOffset": 3768,
      "componentType": 5125,
      "count": 240,
      "type": "SCALAR"
    },
    {
      "bufferView": 2,
      "byteOffset": 18528,
      "componentType": 5126,
      "count": 136,
      "max": [
        0.21905064582824707,
        0.21905063092708588,
        0.3285759389400482
      ],
      "min": [
        -0.21905061602592468,
        -0.21905063092708588,
        0.0
      ],
      "type": "VEC3"
    },
    {
      "bufferView": 2,
      "byteOffset": 20160,
      "componentType": 5126,
      "count": 136,
      "max": [
        0.9238795638084412,
        0.9238795638084412,
        1.0
      ],
      "min": [
        -0.9238795638084412,
        -0.9238795638084412,
        -1.0
      ],
      "type": "VEC3"
    },
    {
      "bufferView": 1,
      "byteOffset": 6176,
      "componentType": 5126,
      "count": 136,
      "max": [
        0.8453531265258789,
        0.988910973072052
      ],
      "min": [
        0.0030731717124581337,
        0.09622415155172348
      ],
      "type": "VEC2"
    },
    {
      "bufferView": 0,
      "byteOffset": 4728,
      "componentType": 5125,
      "count": 228,
      "type": "SCALAR"
    },
    {
      "bufferView": 2,
      "byteOffset": 21792,
      "componentType": 5126,
      "count": 156,
      "max": [
        0.20517481863498688,
        0.23691554367542267,
        0.3417653441429138
      ],
      "min": [
        -0.20517493784427643,
        -0.23691554367542267,
        0.0
      ],
      "type": "VEC3"
    },
    {
      "bufferView": 2,
      "byteOffset": 23664,
      "componentType": 5126,
      "count": 156,
      "max": [
        1.0,
        0.8660255074501038,
        1.0
      ],
      "min": [
        -1.0,
        -0.8660255074501038,
        -1.0
      ],
      "type": "VEC3"
    },
    {
      "bufferView": 1,
      "byteOffset": 7264,
      "componentType": 5126,
      "count": 156,
      "max": [
        0.9175289869308472,
        0.9199961423873901
      ],
      "min": [
        0.5721007585525513,
        0.06477069854736328
      ],
      "type": "VEC2"
    },
    {
      "bufferView": 0,
      "byteOffset": 5640,
      "componentType": 5125,
      "count": 240,
      "type": "SCALAR"
    },
    {
      "bufferView": 2,
      "byteOffset": 25536,
      "componentType": 5126,
      "count": 256,
      "max": [
        0.34540411829948425,
        0.3468400537967682,
        0.9729723334312439
      ],
      "min": [
        -0.348332017660141,
        -0.37753230333328247,
        -0.019703326746821404
      ],
      "type": "VEC3"
    },
    {
      "bufferView": 2,
      "byteOffset": 28608,
      "componentType": 5126,
      "count": 256,
      "max": [
        0.9788247346878052,
        0.999556303024292,
        0.46015775203704834
      ],
      "min": [
        -0.9995633363723755,
        -0.9942628741264343,
        -0.19247981905937195
      ],
      "type": "VEC3"
    },
    {
      "bufferView": 1,
      "byteOffset": 8512,
      "componentType": 5126,
      "count": 256,
      "max": [
        1.016555905342102,
        1.0
      ],
      "min": [
        0.0,
        -0.0019437400624155998
      ],
      "type": "VEC2"
    },
    {
      "bufferView": 0,
      "byteOffset": 6600,
      "componentType": 5125,
      "count": 384,
      "type": "SCALAR"
    },
    {
      "bufferView": 2,
      "byteOffset": 31680,
      "componentType": 5126,
      "count": 140,
      "max": [
        0.1779467761516571,
        0.1779467761516571,
        0.2672749161720276
      ],
      "min": [
        -0.1779467761516571,
        -0.1779467761516571,
        0.0
      ],
      "type": "VEC3"
    },
    {
      "bufferView": 2,
      "byteOffset": 33360,
      "componentType": 5126,
      "count": 140,
      "max": [
        0.9238795638084412,
        0.9238796830177307,
        1.0
      ],
      "min": [
        -0.9238795638084412,
        -0.9238796830177307,
        -1.0
      ],
      "type": "VEC3"
    },
    {
      "bufferView": 1,
      "byteOffset": 10560,
      "componentType": 5126,
      "count": 140,
      "max": [
        0.9026482105255127,
        0.4790947139263153
      ],
      "min": [
        0.03259847313165665,
        0.010878585278987885
      ],
      "type": "VEC2"
    },
    {
      "bufferView": 0,
      "byteOffset": 8136,
      "componentType": 5125,
      "count": 228,
      "type": "SCALAR"
    },
    {
      "bufferView": 2,
      "byteOffset": 35040,
      "componentType": 5126,
      "count": 220,
      "max": [
        0.2263065129518509,
        0.2786685526371002,
        0.484989196062088
      ],
      "min": [
        -0.2640416920185089,
        -0.24593141674995422,
        -0.04772463068366051
      ],
      "type": "VEC3"
    },
    {
      "bufferView": 2,
      "byteOffset": 37680,
      "componentType": 5126,
      "count": 220,
      "max": [
        0.952644944190979,
        0.9289942979812622,
        -0.13751250505447388
      ],
      "min": [
        -0.9721992015838623,
        -0.9755634069442749,
        -0.9042086005210876
      ],
      "type": "VEC3"
    },
    {
      "bufferView": 1,
      "byteOffset": 11680,
      "componentType": 5126,
      "count": 220,
      "max": [
        1.0,
        1.0
      ],
      "min": [
        0.0,
        0.0
      ],
      "type": "VEC2"
    },
    {
      "bufferView": 0,
      "byteOffset": 9048,
      "componentType": 5125,
      "count": 330,
      "type": "SCALAR"
    }
  ],
  "asset": {
    "extras": {
      "author": "tophatpanda (https://sketchfab.com/tophatpanda)",
      "license": "CC-BY-4.0 (http://creativecommons.org/licenses/by/4.0/)",
      "source": "https://sketchfab.com/3d-models/psx-style-house-plants-4276040d97ae48ef9b8a999815f2bbe6",
      "title": "psx style house plants"
    },
    "generator": "Sketchfab-16.53.0",
    "version": "2.0"
  },
  "bufferViews": [
    {
      "buffer": 0,
      "byteLength": 10368,
      "name": "floatBufferViews",
      "target": 34963
    },
    {
      "buffer": 0,
      "byteLength": 13440,
      "byteOffset": 10368,
      "byteStride": 8,
      "name": "floatBufferViews",
      "target": 34962
    },
    {
      "buffer": 0,
      "byteLength": 40320,
      "byteOffset": 23808,
      "byteStride": 12,
      "name": "floatBufferViews",
      "target": 34962
    }
  ],
  "buffers": [
    {
      "byteLength": 64128,
      "uri": "scene.bin"
    }
  ],
  "extensionsUsed": [
    "KHR_materials_unlit"
  ],
  "images": [
    {
      "uri": "textures/leaf_baseColor.png"
    },
    {
      "uri": "textures/calathea_baseColor.png"
    },
    {
      "uri": "textures/pots_baseColor.png"
    }
  ],
  "materials": [
    {
      "alphaCutoff": 0.2544769660250393,
      "alphaMode": "MASK",
      "doubleSided": true,
      "extensions": {
        "KHR_materials_unlit": {}
      },
      "name": "leaf",
      "pbrMetallicRoughness": {
        "baseColorTexture": {
          "index": 0
        },
        "metallicFactor": 0.0
      }
    },
    {
      "alphaCutoff": 0.4739062061903426,
      "alphaMode": "MASK",
      "doubleSided": true,
      "extensions": {
        "KHR_materials_unlit": {}
      },
      "name": "calathea",
      "pbrMetallicRoughness": {
        "baseColorTexture": {
          "index": 1
        },
        "metallicFactor": 0.0
      }
    },
    {
      "doubleSided": true,
      "extensions": {
        "KHR_materials_unlit": {}
      },
      "name": "pots",
      "pbrMetallicRoughness": {
        "baseColorTexture": {
          "index": 2
        },
        "metallicFactor": 0.0
      }
    }
  ],
  "meshes": [
    {
      "name": "sanseveria_leaf_0",
      "primitives": [
        {
          "attributes": {
            "NORMAL": 1,
            "POSITION": 0,
            "TEXCOORD_0": 2
          },
          "indices": 3,
          "material": 0,
          "mode": 4
        }
      ]
    },
    {
      "name": "calathea_calathea_0",
      "primitives": [
        {
          "attributes": {
            "NORMAL": 5,
            "POSITION": 4,
            "TEXCOORD_0": 6
          },
          "indices": 7,
          "material": 1,
          "mode": 4
        }
      ]
    },
    {
      "name": "pot3_pots_0",
      "primitives": [
        {
          "attributes": {
            "NORMAL": 9,
            "POSITION": 8,
            "TEXCOORD_0": 10
          },
          "indices": 11,
          "material": 2,
          "mode": 4
        }
      ]
    },
    {
      "name": "pot_pots_0",
      "primitives": [
        {
          "attributes": {
            "NORMAL": 13,
            "POSITION": 12,
            "TEXCOORD_0": 14
          },
          "indices": 15,
          "material": 2,
          "mode": 4
        }
      ]
    },
    {
      "name": "pot2_pots_0",
      "primitives": [
        {
          "attributes": {
            "NORMAL": 17,
            "POSITION": 16,
            "TEXCOORD_0": 18
          },
          "indices": 19,
          "material": 2,
          "mode": 4
        }
      ]
    },
    {
      "name": "pot.001_pots_0",
      "primitives": [
        {
          "attributes": {
            "NORMAL": 21,
            "POSITION": 20,
            "TEXCOORD_0": 22
          },
          "indices": 23,
          "material": 2,
          "mode": 4
        }
      ]
    },
    {
      "name": "sanseveria.001_leaf_0",
      "primitives": [
        {
          "attributes": {
            "NORMAL": 25,
            "POSITION": 24,
            "TEXCOORD_0": 26
          },
          "indices": 27,
          "material": 0,
          "mode": 4
        }
      ]
    },
    {
      "name": "pot3.001_pots_0",
      "primitives": [
        {
          "attributes": {
            "NORMAL": 29,
            "POSITION": 28,
            "TEXCOORD_0": 30
          },
          "indices": 31,
          "material": 2,
          "mode": 4
        }
      ]
    },
    {
      "name": "calathea.001_calathea_0",
      "primitives": [
        {
          "attributes": {
            "NORMAL": 33,
            "POSITION": 32,
            "TEXCOORD_0": 34
          },
          "indices": 35,
          "material": 1,
          "mode": 4
        }
      ]
    }
  ],
  "nodes": [
    {
      "children": [
        1
      ],
      "matrix": [
        1.0,
        -1.6081226229577292e-16,
        -6.7157552731228e-32,
        0.0,
        1.4104348231229717e-32,
        5.053215392444312e-16,
        -1.0,
        0.0,
        1.6081226229577292e-16,
        1.0,
        5.053215392444312e-16,
        0.0,
        0.0,
        0.0,
        0.0,
        1.0
      ],
      "name": "Sketchfab_model"
    },
    {
      "children": [
        2
      ],
      "matrix": [
        1.0,
        0.0,
        0.0,
        0.0,
        0.0,
        0.0,
        1.0,
        0.0,
        0.0,
        -1.0,
        0.0,
        0.0,
        0.0,
        0.0,
        0.0,
        1.0
      ],
      "name": "6041b74d131b434a8b5b268e3b3cabf8.fbx"
    },
    {
      "children": [
        3,
        5,
        7,
        9,
        11,
        13,
        15,
        17,
        19
      ],
      "name": "RootNode"
    },
    {
      "children": [
        4
      ],
      "matrix": [
        100.0,
        0.0,
        0.0,
        0.0,
        0.0,
        -2.8212996916465727e-05,
        -99.99999999999602,
        0.0,
        0.0,
        99.99999999999602,
        -2.8212996916465727e-05,
        0.0,
        55.82453155517578,
        0.0,
        -0.022494792938232422,
        1.0
      ],
      "name": "sanseveria"
    },
    {
      "mesh": 0,
      "name": "sanseveria_leaf_0"
    },
    {
      "children": [
        6
      ],
      "matrix": [
        100.0,
        0.0,
        0.0,
        0.0,
        -0.0,
        -2.8212996916465727e-05,
        -99.99999999999602,
        0.0,
        0.0,
        99.99999999999602,
        -2.8212996916465727e-05,
        0.0,
        -0.4152946174144745,
        0.0,
        1.6192084550857544,
        1.0
      ],
      "name": "calathea"
    },
    {
      "mesh": 1,
      "name": "calathea_calathea_0"
    },
    {
      "children": [
        8
      ],
      "matrix": [
        100.0,
        0.0,
        0.0,
        0.0,
        0.0,
        -2.8212996916465727e-05,
        -99.99999999999602,
        0.0,
        0.0,
        99.99999999999602,
        -2.8212996916465727e-05,
        0.0,
        16.88280487060547,
        0.0,
        90.3821792602539,
        1.0
      ],
      "name": "pot3"
    },
    {
      "mesh": 2,
      "name": "pot3_pots_0"
    },
    {
      "children": [
        10
      ],
      "matrix": [
        100.0,
        0.0,
        0.0,
        0.0,
        0.0,
        -2.8212996916465727e-05,
        -99.99999999999602,
        0.0,
        0.0,
        99.99999999999602,
        -2.8212996916465727e-05,
        0.0,
        51.92388916015625,
        0.0,
        111.7883071899414,
        1.0
      ],
      "name": "pot"
    },
    {
      "mesh": 3,
      "name": "pot_pots_0"
    },
    {
      "children": [
        12
      ],
      "matrix": [
        100.0,
        0.0,
        0.0,
        0.0,
        0.0,
        -2.8212996916465727e-05,
        -99.99999999999602,
        0.0,
        0.0,
        99.99999999999602,
        -2.8212996916465727e-05,
        0.0,
        11.04175853729248,
        0.0,
        131.72604370117188,
        1.0
      ],
      "name": "pot2"
    },
    {
      "mesh": 4,
      "name": "pot2_pots_0"
    },
    {
      "children": [
        14
      ],
      "matrix": [
        100.0,
        0.0,
        0.0,
        0.0,
        0.0,
        -2.8212996916465727e-05,
        -99.99999999999602,
        0.0,
        0.0,
        99.99999999999602,
        -2.8212996916465727e-05,
        0.0,
        51.92388916015625,
        0.0,
        -100.8758544921875,
        1.0
      ],
      "name": "pot.001"
    },
    {
      "mesh": 5,
      "name": "pot.001_pots_0"
    },
    {
      "children": [
        16
      ],
      "matrix": [
        90.319580078125,
        0.0,
        0.0,
        0.0,
        0.0,
        -2.54818603424062e-05,
        -90.3195800781214,
        0.0,
        0.0,
        90.3195800781214,
        -2.54818603424062e-05,
        0.0,
        51.16817855834961,
        21.829742431640625,
        -100.59912109375,
        1.0
      ],
      "name": "sanseveria.001"
    },
    {
      "mesh": 6,
      "name": "sanseveria.001_leaf_0"
    },
    {
      "children": [
        18
      ],
      "matrix": [
        100.0,
        0.0,
        0.0,
        0.0,
        -0.0,
        -2.8212996916465727e-05,
        -99.99999999999602,
        0.0,
        0.0,
        99.99999999999602,
        -2.8212996916465727e-05,
        0.0,
        -8.148447036743164,
        0.0,
        -104.05847930908203,
        1.0
      ],
      "name": "pot3.001"
    },
    {
      "mesh": 7,
      "name": "pot3.001_pots_0"
    },
    {
      "children": [
        20
      ],
      "matrix": [
        100.0,
        0.0,
        0.0,
        0.0,
        -0.0,
        -2.8212996916465727e-05,
        -99.99999999999602,
        0.0,
        0.0,
        99.99999999999602,
        -2.8212996916465727e-05,
        0.0,
        -8.908185958862305,
        19.644569396972656,
        -104.38040161132813,
        1.0
      ],
      "name": "calathea.001"
    },
    {
      "mesh": 8,
      "name": "calathea.001_calathea_0"
    }
  ],
  "samplers": [
    {
      "magFilter": 9728,
      "minFilter": 9986,
      "wrapS": 10497,
      "wrapT": 10497
    }
  ],
  "scene": 0,
  "scenes": [
    {
      "name": "Sketchfab_Scene",
      "nodes": [
        0
      ]
    }
  ],
  "textures": [
    {
      "sampler": 0,
      "source": 0
    },
    {
      "sampler": 0,
      "source": 1
    },
    {
      "sampler": 0,
      "source": 2
    }
  ]
}
